<svg id="Capa_1" data-name="Capa 1" xmlns="http://www.w3.org/2000/svg" viewBox="0 0 137.1 152.45"><defs><style>.cls-1{fill:#ddd;}.cls-2,.cls-3{fill:none;stroke-width:11px;}.cls-2{stroke:#000;}.cls-3{stroke:#ddd;}</style></defs><polygon class="cls-1" points="112.77 103.57 112.77 114.56 52.32 114.56 52.32 125.56 123.76 125.56 123.76 114.56 123.76 103.57 112.77 103.57"/><polygon class="cls-1" points="0 0 0 10.99 9 10.99 9 114.38 0.54 114.38 0.54 125.37 33.51 125.37 33.51 114.38 19.99 114.38 19.99 68.39 102.43 68.39 102.43 57.4 19.99 57.4 19.99 10.99 112.66 10.99 112.66 21.98 123.65 21.98 123.65 10.99 123.65 0 0 0"/><path class="cls-2" d="M266.13,171.12" transform="translate(-79.92 -71.66)"/><path class="cls-3" d="M123.31,224.1V164.3h64.35a33.34,33.34,0,0,0,18.45-13,29.47,29.47,0,0,0,5.41-16.93A28.63,28.63,0,0,0,206,117.67a29,29,0,0,0-17-10.87H123.31v9.88" transform="translate(-79.92 -71.66)"/></svg>