<svg id="Capa_1" data-name="Capa 1" xmlns="http://www.w3.org/2000/svg" viewBox="0 0 283.46 283.46"><defs><style>.cls-1{font-size:26px;font-family:BankGothicBT-Light, BankGothic Lt BT;font-weight:300;}.cls-2{letter-spacing:-0.07em;}.cls-3{letter-spacing:0.04em;}.cls-4{fill:none;stroke:#000;stroke-width:11px;}</style></defs><polygon points="205.13 154.06 205.13 167.42 131.66 167.42 131.66 180.77 218.48 180.77 218.48 167.42 218.48 154.06 205.13 154.06"/><polygon points="68.08 28.19 68.08 41.55 79.02 41.55 79.02 167.19 68.73 167.19 68.73 180.55 108.8 180.55 108.8 167.19 92.38 167.19 92.38 111.31 192.56 111.31 192.56 97.95 92.38 97.95 92.38 41.55 204.99 41.55 204.99 54.91 218.35 54.91 218.35 41.55 218.35 28.19 68.08 28.19"/><text class="cls-1" transform="translate(24.61 252.07) scale(1 1.56)">Emanuel <tspan class="cls-2" x="127.88" y="0">P</tspan><tspan x="145.12" y="0">a</tspan><tspan class="cls-3" x="161.42" y="0">l</tspan><tspan x="176.29" y="0">acio</tspan></text><path class="cls-4" d="M120.81,213.45V140.77H199A40.4,40.4,0,0,0,221.43,125,35.73,35.73,0,0,0,228,104.4a34.68,34.68,0,0,0-6.71-20.28A35.24,35.24,0,0,0,200.59,70.9H120.81v12"/></svg>