<svg id="a023ad3e-b533-4c46-880e-7d60b0f9dbc8" data-name="Capa 1" xmlns="http://www.w3.org/2000/svg" viewBox="0 0 207.13 233.57"><defs><style>.fa08f8ba-4533-453f-b0fd-e53cf90de447{fill:#ddd;}.f437b45e-5246-4426-b08d-e49bd29d46bf{fill:#dcdcdc;}.bea6964b-97ea-41ad-af7e-2108aaac43db,.f3850880-aba6-4b6a-bd39-48828fe6904e{fill:none;stroke-width:11px;}.f3850880-aba6-4b6a-bd39-48828fe6904e{stroke:#000;}.bea6964b-97ea-41ad-af7e-2108aaac43db{stroke:#dcdcdc;}</style></defs><polygon class="fa08f8ba-4533-453f-b0fd-e53cf90de447" points="172.78 158.69 172.78 175.53 80.16 175.53 80.16 192.37 189.62 192.37 189.62 175.53 189.62 158.69 172.78 158.69"/><polygon class="f437b45e-5246-4426-b08d-e49bd29d46bf" points="0 0 0 16.84 13.79 16.84 13.79 175.25 0.82 175.25 0.82 192.09 51.34 192.09 51.34 175.25 30.63 175.25 30.63 104.79 156.93 104.79 156.93 87.95 30.63 87.95 30.63 16.84 172.61 16.84 172.61 33.68 189.45 33.68 189.45 16.84 189.45 0 0 0"/><path class="f3850880-aba6-4b6a-bd39-48828fe6904e" d="M266.13,171.12" transform="translate(-45.14 -31.19)"/><path class="bea6964b-97ea-41ad-af7e-2108aaac43db" d="M111.62,264.76V173.13h98.59c4.42-1.23,18.65-5.79,28.26-19.93a45,45,0,0,0,8.3-25.93,43.78,43.78,0,0,0-8.46-25.57A44.45,44.45,0,0,0,212.2,85H111.62v15.14" transform="translate(-45.14 -31.19)"/></svg>